<?xml version="1.0" encoding="utf-8"?><svg xmlns="http://www.w3.org/2000/svg" xmlns:xlink="http://www.w3.org/1999/xlink" width="1939" height="386" preserveAspectRatio="xMidYMid" viewBox="0 0 1939 386" style="z-index:1;margin-right:-2px;display:block;background-repeat-y:initial;background-repeat-x:initial;background-color:rgb(241, 242, 243);animation-play-state:paused" ><g transform="translate(969.5,193) scale(1,-1) translate(-969.5,-193)" style="transform:matrix(1, 0, 0, -1, 0, 386);animation-play-state:paused" ><linearGradient id="lg-0.7853412368987545" x1="0" x2="1" y1="0" y2="0" style="animation-play-state:paused" ><stop stop-color="#0a3777" offset="0" style="animation-play-state:paused" ></stop>

  
<stop stop-color="#0eaae8" offset="1" style="animation-play-state:paused" ></stop></linearGradient>
<path d="M 0 0 L 0 360.197 Q 193.9 367.714 387.8 348.12 T 775.6 253.129 T 1163.4 204.257 T 1551.2 194.355 T 1939 182.249 L 1939 0 Z" fill="url(#lg-0.7853412368987545)" opacity="0.4" style="opacity:0.4;animation-play-state:paused" ></path>
<path d="M 0 0 L 0 371.697 Q 193.9 363.44 387.8 323.59 T 775.6 265.689 T 1163.4 216.825 T 1551.2 188.956 T 1939 123.454 L 1939 0 Z" fill="url(#lg-0.7853412368987545)" opacity="0.4" style="opacity:0.4;animation-play-state:paused" ></path>
<path d="M 0 0 L 0 363.306 Q 193.9 307.431 387.8 280.385 T 775.6 296.679 T 1163.4 239.578 T 1551.2 208.887 T 1939 144.132 L 1939 0 Z" fill="url(#lg-0.7853412368987545)" opacity="0.4" style="opacity:0.4;animation-play-state:paused" ></path>
<path d="M 0 0 L 0 331.678 Q 193.9 326.501 387.8 285.773 T 775.6 262.892 T 1163.4 247.396 T 1551.2 190.051 T 1939 164.858 L 1939 0 Z" fill="url(#lg-0.7853412368987545)" opacity="0.4" style="opacity:0.4;animation-play-state:paused" ></path>
<path d="M 0 0 L 0 378.747 Q 193.9 364.518 387.8 329.621 T 775.6 246.395 T 1163.4 250.782 T 1551.2 208.193 T 1939 143.164 L 1939 0 Z" fill="url(#lg-0.7853412368987545)" opacity="0.4" style="opacity:0.4;animation-play-state:paused" ></path></g></svg>