<?xml version="1.0" encoding="utf-8"?><svg xmlns="http://www.w3.org/2000/svg" xmlns:xlink="http://www.w3.org/1999/xlink" width="1939" height="386" preserveAspectRatio="xMidYMid" viewBox="0 0 1939 386" style="z-index:1;margin-right:-2px;display:block;background-repeat-y:initial;background-repeat-x:initial;animation-play-state:paused" ><g transform="translate(969.5,193) scale(1,-1) translate(-969.5,-193)" style="transform:matrix(1, 0, 0, -1, 0, 386);animation-play-state:paused" ><linearGradient id="lg-0.08761957609346438" x1="0" x2="1" y1="0" y2="0" style="animation-play-state:paused" ><stop stop-color="#0a3777" offset="0" style="animation-play-state:paused" ></stop>

  
<stop stop-color="#0eaae8" offset="1" style="animation-play-state:paused" ></stop></linearGradient>
<path d="M 0 0 L 0 330.808 Q 193.9 325.55 387.8 306.809 T 775.6 288.896 T 1163.4 266.519 T 1551.2 201.284 T 1939 187.341 L 1939 0 Z" fill="url(#lg-0.08761957609346438)" opacity="0.4" style="opacity:0.4;animation-play-state:paused" ></path>
<path d="M 0 0 L 0 352.513 Q 193.9 327.689 387.8 305.769 T 775.6 285.098 T 1163.4 246.4 T 1551.2 181.053 T 1939 173.965 L 1939 0 Z" fill="url(#lg-0.08761957609346438)" opacity="0.4" style="opacity:0.4;animation-play-state:paused" ></path>
<path d="M 0 0 L 0 361.536 Q 193.9 360.32 387.8 334.389 T 775.6 275.957 T 1163.4 271.492 T 1551.2 225.206 T 1939 159.958 L 1939 0 Z" fill="url(#lg-0.08761957609346438)" opacity="0.4" style="opacity:0.4;animation-play-state:paused" ></path>
<path d="M 0 0 L 0 355.363 Q 193.9 353.604 387.8 332.217 T 775.6 264.73 T 1163.4 271.558 T 1551.2 216.345 T 1939 145.847 L 1939 0 Z" fill="url(#lg-0.08761957609346438)" opacity="0.4" style="opacity:0.4;animation-play-state:paused" ></path>
<path d="M 0 0 L 0 373.72 Q 193.9 331.496 387.8 306.621 T 775.6 273.256 T 1163.4 224.183 T 1551.2 194.024 T 1939 174.339 L 1939 0 Z" fill="url(#lg-0.08761957609346438)" opacity="0.4" style="opacity:0.4;animation-play-state:paused" ></path></g></svg>